<svg width="50" height="50" viewBox="0 0 50 50" fill="none" xmlns="http://www.w3.org/2000/svg">
<g clip-path="url(#clip0_93_100)">
<path fill-rule="evenodd" clip-rule="evenodd" d="M21.0496 39.6178C21.0496 39.8175 21.2208 39.9886 21.4347 39.9886H26.8825C27.0964 39.9886 27.2675 39.8175 27.2675 39.6178V24.8859H31.2036C31.4176 24.8859 31.5744 24.7148 31.5887 24.5294L31.9738 20.0941C31.988 19.8802 31.8169 19.6948 31.5887 19.6948H27.2675V16.5288C27.2675 15.8015 27.8808 15.1882 28.6081 15.1882H31.66C31.8739 15.1882 32.0451 15.0314 32.0451 14.8175V10.3822C32.0451 10.1683 31.8739 9.99715 31.66 9.99715H26.5117C23.5026 9.99715 21.0496 12.4216 21.0496 15.4022V19.6948H18.3257C18.1118 19.6948 17.9549 19.8517 17.9549 20.0656V24.5009C17.9549 24.7005 18.1118 24.8859 18.3257 24.8859H21.0496V39.6178Z" fill="white"/>
</g>
<defs>
<clipPath id="clip0_93_100">
<rect width="50" height="50" fill="white"/>
</clipPath>
</defs>
</svg>
