<svg width="30" height="30" viewBox="0 0 30 30" fill="none" xmlns="http://www.w3.org/2000/svg">
<path d="M3.48379 5H20.3113C21.1308 5 21.7951 5.78209 21.7951 6.74684C21.7951 7.71159 21.1308 8.49367 20.3113 8.49367H3.48379C2.66432 8.49367 2 7.71159 2 6.74684C2 5.78209 2.66432 5 3.48379 5Z" fill="#89582F"/>
<path d="M3.9559 13.7722H26.0441C27.1243 13.7722 28 14.5542 28 15.519C28 16.4837 27.1243 17.2658 26.0441 17.2658H3.9559C2.87569 17.2658 2 16.4837 2 15.519C2 14.5542 2.87569 13.7722 3.9559 13.7722Z" fill="#FAD8B2"/>
<path d="M3.11284 22.5063H15.2192C15.8152 22.5063 16.2983 23.2884 16.2983 24.2532C16.2983 25.2179 15.8152 26 15.2192 26H3.11284C2.51686 26 2.03372 25.2179 2.03372 24.2532C2.03372 23.2884 2.51686 22.5063 3.11284 22.5063Z" fill="#FAD8B2"/>
</svg>
