<svg width="50" height="50" viewBox="0 0 50 50" fill="none" xmlns="http://www.w3.org/2000/svg">
<path fill-rule="evenodd" clip-rule="evenodd" d="M15.279 12.5023C13.7567 12.5023 12.5024 13.7566 12.5024 15.2789V34.7211C12.5024 36.2491 13.7567 37.5034 15.279 37.5034H34.7212C36.2492 37.5034 37.5035 36.2491 37.5035 34.7211V15.2789C37.5035 13.7566 36.2492 12.5023 34.7212 12.5023H15.279ZM15.279 9.71995H34.7212C37.7772 9.71995 40.2801 12.2229 40.2801 15.2789V34.7211C40.2801 37.7771 37.7772 40.2801 34.7212 40.2801H15.279C12.223 40.2801 9.72002 37.7771 9.72002 34.7211V15.2789C9.72002 12.2229 12.223 9.71995 15.279 9.71995Z" fill="white"/>
<path fill-rule="evenodd" clip-rule="evenodd" d="M25.0001 19.4981C28.039 19.4981 30.502 21.9611 30.502 25C30.502 28.039 28.039 30.502 25.0001 30.502C21.9612 30.502 19.4981 28.039 19.4981 25C19.4981 21.9611 21.9612 19.4981 25.0001 19.4981ZM25.0001 16.7214C29.5727 16.7214 33.2844 20.4274 33.2844 25C33.2844 29.5727 29.5727 33.2786 25.0001 33.2786C20.4275 33.2786 16.7215 29.5727 16.7215 25C16.7215 20.4274 20.4275 16.7214 25.0001 16.7214Z" fill="white"/>
<path d="M33.5866 18.7454C34.6918 18.7454 35.5878 17.8495 35.5878 16.7442C35.5878 15.639 34.6918 14.743 33.5866 14.743C32.4813 14.743 31.5853 15.639 31.5853 16.7442C31.5853 17.8495 32.4813 18.7454 33.5866 18.7454Z" fill="white"/>
</svg>
