<?xml version="1.0" encoding="UTF-8"?>
<!DOCTYPE svg PUBLIC "-//W3C//DTD SVG 1.1//EN" "http://www.w3.org/Graphics/SVG/1.1/DTD/svg11.dtd">
<!-- Creator: CorelDRAW -->
<svg xmlns="http://www.w3.org/2000/svg" xml:space="preserve" width="30px" height="30px" version="1.1" style="shape-rendering:geometricPrecision; text-rendering:geometricPrecision; image-rendering:optimizeQuality; fill-rule:evenodd; clip-rule:evenodd"
viewBox="0 0 0.841 0.841"
 xmlns:xlink="http://www.w3.org/1999/xlink"
 xmlns:xodm="http://www.corel.com/coreldraw/odm/2003">
 <defs>
  <style type="text/css">
   <![CDATA[
    .fil1 {fill:#012169;fill-rule:nonzero}
    .fil2 {fill:#C8102E;fill-rule:nonzero}
    .fil0 {fill:white;fill-rule:nonzero}
   ]]>
  </style>
 </defs>
 <g id="Layer_x0020_1">
  <metadata id="CorelCorpID_0Corel-Layer"/>
  <g id="_2393245919984">
   <path class="fil0" d="M0.423 0c0.111,0 0.217,0.045 0.295,0.122l0 0c0.078,0.078 0.123,0.184 0.123,0.295 0,0.117 -0.045,0.223 -0.123,0.301l0 0c-0.078,0.078 -0.184,0.123 -0.295,0.123 -0.117,0 -0.223,-0.045 -0.301,-0.123 -0.077,-0.078 -0.122,-0.184 -0.122,-0.301 0,-0.111 0.045,-0.217 0.122,-0.295 0.078,-0.077 0.184,-0.122 0.301,-0.122z"/>
   <path class="fil1" d="M0.289 0.284l0 -0.228c-0.072,0.028 -0.133,0.078 -0.178,0.139l0.178 0.089zm0 0.273l0 0.228c-0.072,-0.028 -0.133,-0.078 -0.178,-0.139l0.178 -0.089zm0.257 0l0 0.228c0.077,-0.028 0.139,-0.078 0.183,-0.139l-0.183 -0.089zm0 -0.273l0 -0.228c0.077,0.028 0.139,0.078 0.183,0.139l-0.183 0.089z"/>
   <path class="fil2" d="M0.763 0.551l-0.084 0 0.084 0.039c0.005,-0.011 0.011,-0.022 0.016,-0.033l-0.016 -0.006 0 0zm-0.017 -0.334l-0.156 0.072 0.089 0 0.084 -0.039c-0.006,-0.011 -0.012,-0.022 -0.017,-0.033zm-0.401 0.278l0 0.301c0.022,0.006 0.05,0.011 0.078,0.011 0.022,0 0.05,-0.005 0.072,-0.011l0 -0.301 0.301 0c0.006,-0.022 0.011,-0.05 0.011,-0.078 0,-0.022 -0.005,-0.05 -0.011,-0.072l-0.301 0 0 -0.3c-0.022,-0.006 -0.05,-0.012 -0.072,-0.012 -0.028,0 -0.056,0.006 -0.078,0.012l0 0.3 -0.3 0c-0.006,0.022 -0.012,0.05 -0.012,0.072 0,0.028 0.006,0.056 0.012,0.078l0.3 0zm-0.267 -0.206l0.083 0 -0.083 -0.039c-0.006,0.012 -0.011,0.023 -0.017,0.034l0.017 0.005 0 0zm0.172 0.262l-0.089 0 -0.083 0.039c0.006,0.011 0.011,0.022 0.017,0.033l0.155 -0.072 0 0z"/>
  </g>
 </g>
</svg>
