<svg width="26" height="26" viewBox="0 0 26 26" fill="none" xmlns="http://www.w3.org/2000/svg">
<path fill-rule="evenodd" clip-rule="evenodd" d="M13.0027 0C20.1205 0 25.8916 5.77115 25.8916 12.8889C25.8916 20.0067 20.1205 25.7751 13.0027 25.7751C10.7782 25.7751 8.68654 25.2115 6.86036 24.2199L0 26L1.80721 19.2778C0.728845 17.3947 0.113797 15.2136 0.113797 12.8889C0.113797 5.77115 5.88495 0 13.0027 0ZM8.01188 7.04189C7.48624 7.3291 7.4158 7.5296 7.06086 7.9902C6.22363 9.21488 6.31576 10.3583 6.80075 11.6615C7.06899 12.3877 7.65423 13.2303 8.14464 13.8318C9.18779 15.1134 10.2824 16.3841 11.6669 17.3162C12.5096 17.8852 13.6719 18.3783 14.6474 18.7143C15.8151 19.0665 16.4248 19.2616 17.7551 18.8091C17.999 18.7278 18.4894 18.4081 18.7332 18.2211C19.2318 17.8337 19.733 16.6226 19.5732 16.0156C19.5 15.742 17.308 14.8072 17.197 14.772C17.0398 14.7205 16.7065 14.5363 16.5684 14.5173C16.2784 14.4767 16.3245 14.4198 16.0725 14.5715C15.9831 14.6257 15.07 15.7772 14.9942 15.8991C14.8885 16.0644 14.7991 16.1376 14.5471 16.1348C13.867 16.1294 12.0517 14.8126 11.545 14.3629C10.9164 13.802 10.594 13.3414 10.1524 12.6613C9.91121 12.2928 9.61588 12.0165 9.96811 11.6046C10.1686 11.3662 10.3935 11.163 10.5669 10.8866C10.6075 10.8189 10.6184 10.8108 10.6563 10.7511C11.0736 10.1117 10.8324 10.128 10.6807 9.6511C10.5073 9.22301 9.85702 7.48895 9.61317 7.20175C9.33681 6.81972 8.3912 6.8441 8.01188 7.04189ZM8.34785 22.4154C9.75406 23.1036 11.3337 23.4883 13.0027 23.4883C18.8579 23.4883 23.6021 18.7441 23.6021 12.8889C23.6021 7.03376 18.8579 2.28679 13.0027 2.28679C7.14756 2.28679 2.40058 7.03376 2.40058 12.8889C2.40058 14.6609 2.83681 16.3326 3.60629 17.8012L4.25927 18.885L3.13756 22.8624L7.31013 21.8328L8.34785 22.4154Z" fill="white"/>
</svg>
